<svg width="50" height="50" viewBox="0 0 50 50" fill="none" xmlns="http://www.w3.org/2000/svg">
<path fill-rule="evenodd" clip-rule="evenodd" d="M9.27727 23.621C9.1802 23.6092 9.13638 23.6278 9.11466 23.6399C7.21442 24.6957 3.60825 27.449 3.60825 33.4221C3.60825 37.9775 4.04255 41.5399 4.47045 43.9444C4.68441 45.1467 4.89674 46.0593 5.05232 46.6615C5.1301 46.9627 5.19369 47.1861 5.23617 47.3294C5.25741 47.401 5.27337 47.4525 5.28319 47.4837L5.29321 47.515M5.29321 47.515C5.61855 48.4916 5.11995 49.5585 4.17865 49.8965C3.23708 50.2347 2.20956 49.7169 1.88363 48.7401L3.5885 48.1278C1.88363 48.7401 1.88363 48.7401 1.88363 48.7401L1.88206 48.7354L1.87985 48.7287L1.87355 48.7094L1.85373 48.6473C1.83741 48.5956 1.81504 48.5231 1.78749 48.4302C1.73238 48.2444 1.65656 47.977 1.56706 47.6305C1.38807 46.9376 1.15431 45.9285 0.922171 44.624C0.457887 42.0151 0 38.2247 0 33.4221C0 25.4966 4.92136 21.7234 7.41118 20.34C8.93364 19.4942 10.5663 19.9156 11.6653 20.6552C13.7621 22.0662 18.7297 24.866 25 24.8661C31.2703 24.8663 36.2379 22.0664 38.3347 20.6553C39.4336 19.9157 41.0664 19.4942 42.5889 20.3401C45.0787 21.7234 50 25.4967 50 33.4221C50 38.2247 49.5421 42.0151 49.0779 44.624C48.8457 45.9284 48.612 46.9376 48.433 47.6305C48.3435 47.977 48.2677 48.2444 48.2126 48.4302C48.185 48.5231 48.1627 48.5956 48.1464 48.6473L48.1265 48.7094L48.1202 48.7286L48.1172 48.7379C48.1172 48.7379 48.1165 48.7401 46.4116 48.1278L48.1172 48.7379C47.7912 49.7148 46.763 50.2346 45.8214 49.8965C44.8807 49.5587 44.3817 48.4943 44.7058 47.5182L44.7067 47.5156L44.7169 47.4837C44.7267 47.4525 44.7427 47.401 44.7639 47.3294C44.8064 47.1861 44.87 46.9627 44.9477 46.6616C45.1033 46.0593 45.3156 45.1467 45.5296 43.9444C45.9575 41.54 46.3918 37.9775 46.3917 33.4221C46.3917 27.4491 42.7856 24.6957 40.8854 23.6399C40.8637 23.6279 40.8198 23.6092 40.7228 23.621C40.6155 23.634 40.4637 23.6844 40.2984 23.7957C37.9254 25.3926 32.2612 28.6096 25 28.6094C17.7387 28.6093 12.0746 25.3925 9.70166 23.7956C9.53635 23.6844 9.38454 23.634 9.27727 23.621" fill="white"/>
<path fill-rule="evenodd" clip-rule="evenodd" d="M29.5066 6.25175C27.0815 3.60463 23.023 3.57112 20.5594 6.17747C18.1283 8.74939 18.2002 12.8914 20.7194 15.3727C23.1464 17.7632 26.9626 17.7329 29.3524 15.3043C31.7786 12.8387 31.8474 8.80677 29.5066 6.25175ZM17.6383 3.20577C21.7245 -1.11719 28.4526 -1.05973 32.4721 3.32776C36.3519 7.56268 36.2394 14.2468 32.2153 18.3363C28.2517 22.3644 21.9252 22.413 17.9024 18.4507C13.727 14.338 13.606 7.47163 17.6383 3.20577Z" fill="white"/>
<path fill-rule="evenodd" clip-rule="evenodd" d="M13.0771 40.4303C13.5227 39.5391 14.6064 39.1779 15.4976 39.6235L23.5017 43.6255C24.4449 44.0972 25.5552 44.0972 26.4985 43.6255L34.5025 39.6235C35.3937 39.1779 36.4774 39.5391 36.923 40.4303C37.3686 41.3215 37.0074 42.4052 36.1162 42.8508L28.1121 46.8528C26.1531 47.8324 23.8471 47.8324 21.888 46.8528L13.884 42.8508C12.9928 42.4052 12.6315 41.3215 13.0771 40.4303Z" fill="white"/>
</svg>
